<?xml version="1.0" standalone="no"?>
<svg xmlns="http://www.w3.org/2000/svg" viewBox="0 0 1440 320"><path fill="#181a1b" fill-opacity="1" d="M0,288L30,256C60,224,120,160,180,149.3C240,139,300,181,360,213.3C420,245,480,267,540,245.3C600,224,660,160,720,117.3C780,75,840,53,900,53.3C960,53,1020,75,1080,122.7C1140,171,1200,245,1260,261.3C1320,277,1380,235,1410,213.3L1440,192L1440,0L1410,0C1380,0,1320,0,1260,0C1200,0,1140,0,1080,0C1020,0,960,0,900,0C840,0,780,0,720,0C660,0,600,0,540,0C480,0,420,0,360,0C300,0,240,0,180,0C120,0,60,0,30,0L0,0Z" data-darkreader-inline-fill="" style="--darkreader-inline-fill:#131516;"></path></svg>